<svg id="btn" viewBox="0 0 166 86" preserveAspectRatio="none" fill="none" xmlns="http://www.w3.org/2000/svg">
<path fill-rule="evenodd" clip-rule="evenodd" d="M166 56.0052H26V53.9995H166V56.0052Z" fill="#1C1C1C"/>
<path fill-rule="evenodd" clip-rule="evenodd" d="M162.725 56.5003L150.821 41.5778L153.798 41.5777L166 53.9995L162.725 56.5003Z" fill="#1C1C1C"/>
<path fill-rule="evenodd" clip-rule="evenodd" d="M162.73 53.5106L150.82 68.4283L153.798 68.4285L166 56.0052L162.73 53.5106Z" fill="#1C1C1C"/>
<path d="M152.438 29.6312C153.126 33.5314 151.816 37.6448 148.753 41.7697C145.689 45.8957 140.897 49.993 134.717 53.8249C122.36 61.487 104.542 68.0317 84.1926 71.6198C63.8432 75.208 44.861 75.1522 30.6286 72.1786C23.5109 70.6914 17.6072 68.4799 13.3168 65.6507C9.02755 62.8223 6.38956 59.405 5.70185 55.5048C5.01414 51.6046 6.32425 47.4911 9.38744 43.3663C12.4515 39.2403 17.2428 35.1429 23.4226 31.3111C35.7796 23.649 53.598 17.1043 73.9474 13.5162C94.2968 9.928 113.279 9.98373 127.511 12.9574C134.629 14.4445 140.533 16.6561 144.823 19.4853C149.113 22.3137 151.75 25.731 152.438 29.6312Z" stroke="black"/>
</svg>
